<svg width="114" height="35" viewBox="0 0 114 35" fill="none" xmlns="http://www.w3.org/2000/svg">
<g clip-path="url(#clip0_217_35197)">
<path d="M7.4352 6.44824C10.5868 6.44824 12.936 8.10852 14.4857 11.4263C14.7412 12.3632 14.8703 13.1393 14.8703 13.7546V20.0908C14.8703 20.8669 14.3565 21.3409 13.3317 21.5127C12.348 21.2965 11.8589 20.8031 11.8589 20.0271C10.4906 21.0193 9.01785 21.5127 7.43795 21.5127C4.50071 21.5127 2.23665 20.0465 0.645757 17.1167C0.217123 16.1355 0.0055542 15.1876 0.0055542 14.2729V13.6908C0.0055542 11.0521 1.3519 8.91787 4.04185 7.29086C5.14091 6.73096 6.27294 6.45101 7.43795 6.45101L7.4352 6.44824ZM3.01148 13.9458V14.0096C3.01148 16.1106 4.14351 17.5547 6.40758 18.3418L7.11372 18.4056H7.81987C9.35855 18.4056 10.617 17.4576 11.6006 15.5618C11.771 14.9575 11.8562 14.3976 11.8562 13.8821C11.8562 11.9751 10.8093 10.5754 8.7156 9.68011L7.81712 9.54983H7.11098C5.62725 9.54983 4.41004 10.3703 3.45935 12.0056C3.15986 12.5988 3.01148 13.2446 3.01148 13.9458Z" fill="white"/>
<path d="M29.6004 0.5H29.9219C30.6803 0.5 31.1281 1.03772 31.2683 2.11593V13.882C31.2683 16.9642 29.8147 19.2703 26.9105 20.8003C25.9076 21.2743 24.8607 21.5099 23.7699 21.5099C20.8107 21.5099 18.5247 19.9799 16.9118 16.9199C16.5271 15.8417 16.3348 14.8521 16.3348 13.9458C16.3348 10.9606 17.8515 8.6545 20.8849 7.02748C21.9537 6.63943 22.9346 6.44541 23.8331 6.44541C25.3718 6.44541 26.8445 6.94155 28.2541 7.93384V1.85816C28.4574 0.951796 28.9053 0.5 29.6004 0.5ZM19.4121 13.688V14.2701C19.4121 15.983 20.3958 17.2968 22.3604 18.2143C22.8192 18.3445 23.2039 18.4083 23.5144 18.4083H24.0914C25.6411 18.4083 26.8803 17.5685 27.809 15.886C28.0343 15.509 28.1826 14.8632 28.2568 13.9458C28.2568 12.2966 27.4463 10.9828 25.8224 10.0016C25.2124 9.69945 24.6354 9.54977 24.0914 9.54977H23.5144C21.8163 9.54977 20.514 10.5421 19.6045 12.5239C19.4753 12.9867 19.4121 13.3748 19.4121 13.688Z" fill="white"/>
<path d="M40.1679 6.44824C43.3194 6.44824 45.6687 8.10852 47.2183 11.4263C47.4739 12.3632 47.603 13.1393 47.603 13.7546V20.0908C47.603 20.8669 47.0892 21.3409 46.0643 21.5127C45.0807 21.2965 44.5916 20.8031 44.5916 20.0271C43.2233 21.0193 41.7505 21.5127 40.1706 21.5127C37.2334 21.5127 34.9693 20.0465 33.3784 17.1167C32.9498 16.1355 32.7382 15.1876 32.7382 14.2729V13.6908C32.7382 11.0521 34.0846 8.91787 36.7745 7.29086C37.8736 6.73096 39.0056 6.45101 40.1706 6.45101L40.1679 6.44824ZM35.7469 13.9486V14.0124C35.7469 16.1133 36.8789 17.5574 39.143 18.3446L39.8491 18.4084H40.5553C42.094 18.4084 43.3524 17.4604 44.3361 15.5645C44.5064 14.9603 44.5916 14.4004 44.5916 13.8849C44.5916 11.9779 43.5447 10.5782 41.451 9.68288L40.5525 9.55261H39.8464C38.3627 9.55261 37.1454 10.373 36.1948 12.0084C35.8953 12.6015 35.7469 13.2474 35.7469 13.9486Z" fill="white"/>
<path d="M57.0303 6.44824C59.2833 6.44824 61.2479 7.44053 62.9267 9.42233C64.5918 7.44053 66.5783 6.44824 68.8864 6.44824C71.7796 6.44824 74.0245 7.89233 75.6154 10.7805C76.0852 11.8033 76.3215 12.8177 76.3215 13.8183V20.088C76.3215 20.853 75.8077 21.327 74.7828 21.5099C73.7992 21.2937 73.3073 20.8198 73.3073 20.088V14.2064C73.3073 11.8781 72.1533 10.3481 69.848 9.61636L69.1419 9.55261H68.5649C67.0262 9.55261 65.787 10.4146 64.8473 12.1387C64.5918 12.6875 64.4626 13.2279 64.4626 13.7546V19.7028C64.4626 20.9085 63.9296 21.5127 62.8608 21.5127C62.0392 21.5127 61.5474 20.9528 61.388 19.833V13.6908C61.388 12.1165 60.5115 10.847 58.7613 9.8769C58.1623 9.6607 57.6732 9.55261 57.2885 9.55261H56.7115C55.0025 9.55261 53.7001 10.5449 52.8016 12.5267C52.6313 13.045 52.5461 13.6908 52.5461 14.4669V20.0908C52.5461 20.878 52.0323 21.352 51.0074 21.5127C50.0237 21.2965 49.5319 20.8031 49.5319 20.0271V14.0789C49.5319 10.9967 50.9854 8.69059 53.8897 7.16058C54.8926 6.68661 55.9394 6.44824 57.0303 6.44824Z" fill="white"/>
<path d="M85.2788 6.44808C87.8836 6.44808 89.9993 7.6538 91.6231 10.068C92.3485 11.2848 92.7139 12.557 92.7139 13.8819V14.0759C92.7139 17.0389 91.1972 19.3229 88.1638 20.9277C87.106 21.3158 86.1251 21.5098 85.2156 21.5098C82.2564 21.5098 79.9703 19.9798 78.3575 16.9198C77.9728 15.7778 77.7805 14.7855 77.7805 13.9457C77.7805 10.9605 79.2972 8.6544 82.3306 7.02738C83.3994 6.63933 84.3803 6.44531 85.2788 6.44531V6.44808ZM80.8578 13.7544V14.2062C80.8578 15.9635 81.8415 17.2995 83.8061 18.2142C84.2649 18.3444 84.6496 18.4082 84.9601 18.4082H85.5371C87.4055 18.4082 88.7518 17.2884 89.5734 15.0461L89.7025 13.9484C89.7025 12.3436 88.9332 11.0492 87.3945 10.0708C86.7653 9.72707 86.1443 9.55245 85.5371 9.55245H84.9601C83.3032 9.55245 82.0228 10.5004 81.1161 12.3963C80.9458 12.9257 80.8606 13.3775 80.8606 13.7544H80.8578Z" fill="white"/>
<path d="M95.7913 0.500086H95.9837C96.709 0.500086 97.1789 0.99623 97.3932 1.98575C97.3932 2.88934 96.8602 3.40765 95.7913 3.53793C94.8516 3.33282 94.3818 2.88102 94.3818 2.17977V1.85547C94.3818 1.15422 94.8516 0.702424 95.7913 0.497314V0.500086ZM95.8545 6.44827C96.7612 6.44827 97.2751 7.00816 97.3932 8.12795V19.8303C97.3932 20.6175 97.0305 21.1552 96.3024 21.4462L95.7254 21.51C94.8269 21.2633 94.379 20.8087 94.379 20.1518V7.80643C94.379 7.08577 94.8709 6.6312 95.8545 6.44827Z" fill="#99D0EB"/>
<path d="M112.332 0.5H112.654C113.412 0.5 113.86 1.03772 114 2.11593V13.882C114 16.9642 112.547 19.2703 109.642 20.8003C108.639 21.2743 107.592 21.5099 106.502 21.5099C103.542 21.5099 101.256 19.9799 99.6435 16.9199C99.2589 15.8417 99.0665 14.8521 99.0665 13.9458C99.0665 10.9606 100.583 8.6545 103.617 7.02748C104.685 6.63943 105.666 6.44541 106.565 6.44541C108.104 6.44541 109.576 6.94155 110.986 7.93384V1.85816C111.189 0.951796 111.637 0.5 112.332 0.5ZM102.144 13.688V14.2701C102.144 15.983 103.128 17.2968 105.092 18.2143C105.551 18.3445 105.936 18.4083 106.246 18.4083H106.823C108.373 18.4083 109.612 17.5685 110.541 15.886C110.766 15.509 110.914 14.8632 110.989 13.9458C110.989 12.2966 110.178 10.9828 108.554 10.0016C107.944 9.69945 107.367 9.54977 106.823 9.54977H106.246C104.548 9.54977 103.246 10.5421 102.336 12.5239C102.207 12.9867 102.144 13.3748 102.144 13.688Z" fill="#99D0EB"/>
<path fill-rule="evenodd" clip-rule="evenodd" d="M81.3464 23.9766C81.9868 23.5661 82.8358 23.757 83.2428 24.403C85.9329 28.6733 90.6616 31.5019 96.0441 31.5019C101.426 31.5019 106.152 28.6735 108.843 24.403C109.25 23.757 110.099 23.5661 110.739 23.9766C111.379 24.3872 111.569 25.2436 111.162 25.8896C107.988 30.9267 102.405 34.2737 96.0441 34.2737C89.6831 34.2737 84.0971 30.9269 80.9238 25.8896C80.5168 25.2436 80.7061 24.3872 81.3464 23.9766Z" fill="#99D0EB"/>
</g>
<defs>
<clipPath id="clip0_217_35197">
<rect width="114" height="33.7738" fill="white" transform="translate(0 0.5)"/>
</clipPath>
</defs>
</svg>
